<svg width="12" height="12" viewBox="0 0 12 12" fill="none" xmlns="http://www.w3.org/2000/svg">
<path fill-rule="evenodd" clip-rule="evenodd" d="M0.862254 0.861278C1.1226 0.600928 1.54471 0.600928 1.80506 0.861278L6.00032 5.05654L10.1956 0.861277C10.4559 0.600928 10.878 0.600928 11.1384 0.861278C11.3987 1.12163 11.3987 1.54374 11.1384 1.80409L6.94313 5.99934L11.1384 10.1946C11.3987 10.455 11.3987 10.8771 11.1384 11.1374C10.878 11.3978 10.4559 11.3978 10.1956 11.1374L6.00032 6.94215L1.80506 11.1374C1.54471 11.3978 1.1226 11.3978 0.862255 11.1374C0.601905 10.8771 0.601905 10.455 0.862254 10.1946L5.05751 5.99934L0.862254 1.80409C0.601905 1.54374 0.601905 1.12163 0.862254 0.861278Z" fill="#9A9CA5"/>
</svg>
